<?xml version="1.0" encoding="UTF-8"?>
<svg id="Layer_1" data-name="Layer 1" xmlns="http://www.w3.org/2000/svg" viewBox="0 0 1080 1080">
  <defs>
    <style>
      .cls-1 {
        fill: #f4a81d;
      }
    </style>
  </defs>
  <polygon class="cls-1" points="835.39 813.93 838.22 813.93 838.22 822.94 840.29 822.94 840.29 813.93 843.1 813.93 843.1 812.3 835.39 812.3 835.39 813.93"/>
  <polygon class="cls-1" points="849.7 821.4 847.44 812.3 844.07 812.3 844.07 822.94 846.08 822.94 846.08 814.19 846.23 814.19 848.6 822.94 850.75 822.94 853.06 814.19 853.2 814.19 853.2 822.94 855.19 822.94 855.19 812.3 851.97 812.3 849.7 821.4"/>
  <path class="cls-1" d="M261.41,835.35c-.72-12.94-11.67-22.78-24.68-21.41-8.37,0-16.86-.58-25.3-.15-6.04.29-4,7.47-4.52,11.61.1,7.73-.31,15.49-.05,23.17.46,6.75-.04,12.57.04,19.68.07,1.89-.04,4.12,1.27,5.4,1.5,1.65,5.04,1.3,8.13,1.36,3.09.03,7.47.29,7.82-3.82.56-3.59-.54-9.67,1.73-11.83.8-.69,1.88-.9,3.25-.97,4.08-.13,8.78.17,12.87-.55,11.02-1.47,20.43-10.76,19.46-22.19l-.02-.29ZM243.84,836.86l-.03.28c-.33,4.1-4.13,6.7-7.96,6.72-3.18.2-6.33.61-9.38-.11-2.02-.47-1.92-2.49-1.96-4.16-.02-2.66-.23-4.8-.33-7.22-.03-1.15,0-2.53.87-3.33,1.29-1.04,3.21-.61,4.77-.62,6.61-.23,14.59-.15,14.01,8.43Z"/>
  <path class="cls-1" d="M312.91,827.99c-.03-2.09-.02-4.46-.04-6.61-.09-3.8.22-6.78-2.95-7.49-3.22-.5-6.56-.05-9.83-.09-1.88.06-3.43.35-4.16,1.64-.82,1.35-.68,3.33-.67,4.96.09,5.2-.09,10.4,0,15.6-.07,7.7.34,15.13.19,22.74-.24,4.02-.09,8.72.18,12.67.1,1.04.36,1.94.98,2.55,2.91,2.19,8.49,1.05,12.16,1.31,4.77.08,3.72-4.76,4.06-8.97.07-1.5.14-2.96.14-4.46v-.32c-.37-10.97.12-22.43-.06-33.52Z"/>
  <path class="cls-1" d="M394.09,859.97c-5.56,0-10.85-.07-16.39.36-7.2.71-4.41-3.72-1.8-7.51,6.81-10.64,13.52-21,20.57-31.54,6.07-9.88-6.55-7.15-12.33-7.66-8.07.24-16.36-.09-24.5.04-3.68.52-11.11-1.48-11.01,4.22-.04,3-.36,7.14,1.41,8.78,1.36,1.36,4.05,1.31,6.74,1.24,4.08-.09,8.4-.36,12.58-.1,2.33.07,4.57,1.01,3.04,3.69-5.94,8.59-11.83,17.46-17.31,26.25-2.43,4.57-7.57,9.06-7.35,14.55,1.19,4.59,7.72,2.04,11.19,2.62,9.56.59,18.9-.15,28.51.25,6.24-.52,11.88,2.39,11.38-6.71v-.33c.11-4.28.36-8.51-4.73-8.16Z"/>
  <path class="cls-1" d="M477.42,859.97c-5.56,0-10.85-.07-16.39.36-7.2.71-4.41-3.72-1.8-7.51,6.81-10.64,13.52-21,20.57-31.54,6.07-9.88-6.55-7.15-12.33-7.66-8.07.24-16.35-.09-24.5.04-3.68.52-11.11-1.48-11.01,4.22-.04,3-.36,7.14,1.41,8.78,1.36,1.36,4.05,1.31,6.74,1.24,4.08-.09,8.4-.36,12.58-.1,2.33.07,4.58,1.01,3.04,3.69-5.94,8.59-11.83,17.46-17.31,26.25-2.43,4.57-7.57,9.06-7.35,14.55,1.19,4.59,7.72,2.04,11.19,2.62,9.56.59,18.9-.15,28.51.25,6.24-.52,11.88,2.39,11.38-6.71v-.33c.11-4.28.36-8.51-4.73-8.16Z"/>
  <path class="cls-1" d="M575.13,853.34c-2.87-6.55-5.65-12.59-8.43-19.14-2.44-6.26-5.31-12.38-8.35-18.2-2.14-3.07-6.37-2.32-9.64-2.45-9.83-.43-10.43,1.55-13.79,9.9-5.38,11.54-10.58,22.64-15.7,34.28-1.5,3.27-3.18,6.91-4.65,10.29-.84,2.04-2.41,5.27.19,6.43,3.38.93,7.42.14,10.87.36,6.36.2,5.68-5.16,8.66-8.73,2.22-1.95,5.56-1.32,8.49-1.47,5.46.12,11.75-.04,17.25.67,4.15.58,4.13,5.62,6.31,8.32,2.36,2.48,6.75,1.23,9.9,1.5,2.43-.13,7.11.92,7.3-2.57v-.24c-1.49-6.66-5.6-12.78-8.41-18.96ZM554.94,848.81c-.45,1.83-2.53,1.76-4.24,1.63-1.7-.12-3.15-.11-4.88-.11-7.78.65-3.51-4.72-2.22-8.85.88-1.85,1.94-5.7,3.27-7.34,1.11-1.11,3.1-.62,3.67.76,1.4,3.9,3.64,9.64,4.43,13.69l-.03.23Z"/>
  <path class="cls-1" d="M723.67,857.22c-1.86-.47-3.87.89-6.02,2.02-6.16,3.46-14.46,4.04-20.12-.72-5-3.85-6.32-11.21-5.35-17.38.76-8.3,8.18-13.5,16.11-13.48,2.54-.02,5.11.49,7.44,1.43,2.71,1.15,5.29,2.78,7.47,1.78,1.1-.45,2.06-1.36,2.93-2.2,4.31-4.13,7.1-6.65,1.57-10.19-14.11-10.6-36.96-7.7-47.24,6.81-13.05,19.05-4.77,47.19,19.65,50.65,9.6,1.55,26.02.46,31.79-8.66l.04-.21c.18-1.7-1.17-3.16-2.19-4.43-1.95-2.21-3.9-4.94-6.06-5.43Z"/>
  <path class="cls-1" d="M807.29,814.63c-10.59-3.63-23.39-3.07-33.16,2.11-21.38,10.21-20.9,46.3.78,55.77,23.5,11.06,52.12-.18,51.7-28.66v-.31c.08-12.14-7.49-24.86-19.33-28.91ZM808.83,844.96v.29c-.16,12.34-12.39,19.99-23.52,14.61-12.91-5.43-12.64-27.34.99-31.83,11.89-4.55,23.45,4.47,22.53,16.94Z"/>
  <path class="cls-1" d="M863.31,859.8c-4.51.33-8.68,4.17-8.67,8.84-.09,5.09,4.67,8.43,9.5,8.13,4.85.45,8.76-2.76,9.07-7.46l.02-.26c.26-5.21-4.7-9.5-9.91-9.24Z"/>
  <path class="cls-1" d="M1036.97,520.11c-3.73-22.8-11.78-53.08-38.55-53.08-1,0-2.04.03-3.1.13-2.04.16-4.13.5-6.26,1-22.02,5.14-33.95,22.7-35.45,52.27-1.22,23.36,4.23,49.92,7.83,67.49l1.44,7.01-7.14.5c-.91.06-1.85.13-2.82.22-2.63.22-5.26.47-7.89.72l-.34.03c-2.66.25-5.32.5-7.95.72-2.47.19-5.76.44-9.18.5l-6.39.09.03-6.39c0-5.42.06-12.06.09-17.63.13-13.43.19-21.73.03-23.8-.69-10.37-2.1-19.38-4.32-27.62-1.25-4.51-3.04-8.36-5.42-11.81,7.8-3.66,13.34-8.46,16.6-14.37,9.24-16.41,5.86-39.3-7.61-51.99l-.66-.63c-14.31-12.31-35.61-12.56-52.8-12.75-3.48-.03-6.73-.06-9.65-.19l-.44-.03c-10.27-.09-13.69-1.88-15.34-3.23-.97-.75-3.91-3.13-5.07-13.62-1.72-13.34-2.51-28.25-3.32-44.06-.38-7.2-.63-14.37-.88-21.58-.94-26.24-1.82-51.01-8.17-75.94-2.69-10.55-11.37-35.54-33.48-39.05-1.5-.22-3.01-.34-4.54-.34-13.25,0-27.15,9.02-34.6,22.45-7.86,14.16-9.71,31.6-10.96,48.26-1.69,22.42-.47,44.91.78,61.98,1.32,17.79,2.94,33.85,4.92,48.88-11.68-31.75-25.08-62.91-38.21-93.39l-.25-.5c-4.95-11.49-10.08-23.36-15-35.07-11.24-25.93-26.59-40.02-45.69-41.87-1.63-.19-3.23-.28-4.73-.28h-.41c-16.85.19-32.79,11.09-41.59,28.31l-.22.47c-25.12,55.37-41.4,119.16-49.7,194.51-5.76-5.07-14.75-8.99-28.75-9.86-1.13-.06-2.22-.13-3.51-.16l-4.67-.25c-2.19-.09-4.35-.22-6.51-.34-9.83-.63-17.91-1.69-25.27-4.98l-.22-.09c-8.67-3.63-15.25-9.93-16.41-15.69-1-5.01,2.91-8.99,4.2-10.3,4.51-4.57,9.11-6.45,15.91-6.45.91,0,1.88.03,2.94.09,2.63.16,5.39.5,8.58.91,3.26.44,6.67.88,10.27,1.1,1.57.09,3.1.16,4.54.16.66,0,1.32-.03,2-.03l.5-.03c10.65-.94,19.67-7.92,24.15-18.66,5.42-13.06,3.66-28.44-4.48-38.33-5.26-6.58-13.4-10.8-23.05-11.93-.91-.09-1.88-.19-2.85-.22-3.32-.22-6.67-.22-10.05-.22-3.16-.03-6.14-.03-8.99-.19-6.98-.44-11.4-1.82-14.66-4.54l-.31-.28c-4.57-3.54-4.57-9.46-4.38-11.81.5-5.7,3.54-10.8,7.58-12.97l.44-.22c3.51-2.07,7.92-3.01,13.81-3.01,1.35,0,2.82.03,4.35.16.94.03,1.85.13,3.1.22,3.54.5,6.48.81,9.27.97,1.63.13,3.23.16,4.73.16,19.04,0,30.88-7.89,35.17-23.33l.13-.44c2.69-11.24-1.44-21.26-11.65-28.18-7.3-4.98-16.63-7.83-25.55-10.15l-.41-.09c-14.25-3.07-30.85-6.39-47.66-7.45-3.76-.22-7.45-.34-10.99-.34-5.23,0-10.21.25-15.22.75-18.45,1.88-32.48,12.43-37.33,27.87-1.1-5.95-2.85-11.24-4.89-15.81-13.06-29.53-46.91-50.48-90.66-56.09l-5.67-.63c-10.08-1.13-22.64-2.54-35.45-2.54-26.65.03-44.44,6.58-54.33,20.01-8.83,11.93-8.86,26.99-8.93,39.02.03,18.07-.09,39.08-1.82,60.03-3.23,34.29-2.76,71.56,1.44,117.28l.13,1.28c.81,7.8,1.75,16.63,4.82,25.02.16.44.31.85.47,1.25-2.04-.88-4.07-1.69-6.14-2.38-1.41-.5-2.85-.94-4.29-1.35-15.69-4.48-32.26-6.76-49.23-6.76-5.26,0-10.65.22-15.97.66-10.02.81-20.11,2.41-30,4.73-37.86,8.93-60.22,32.57-61.32,64.92-.6,17.51,2.19,34.95,4.89,51.89,1.63,10.08,3.16,19.64,4.01,29.22,1.16,12.93,1.75,25.99,2.35,38.77,1.1,23.21,2.19,47.19,6.7,71.24,5.61,30,23.52,45.88,51.86,45.88,2.13,0,4.38-.09,6.67-.28,31.82-2.57,68.61-22.95,90.44-39.62,9.14-6.98,17.76-15.69,25.55-25.9,6.01-7.89,11.37-16.41,16.1-25.43,2.76,9.02,5.86,17.6,9.14,25.49,15.56,37.42,49.39,59.78,90.47,59.78,41.18,0,79.48-23.24,97.52-59.16.22-.44.38-.91.6-1.35,2.22,11.37,5.29,20.83,9.14,28.12,13.53,25.46,45.03,44.12,80.23,47.57,3.7.34,7.39.53,10.99.53,12.18,0,23.61-2,33.76-5.82,10.15-3.82,19.04-9.49,26.18-16.79,12.68-12.93,23.33-40.99,31.32-72.09.16.88.31,1.75.5,2.63,10.52,49.57,51.2,85.02,103.63,90.29l.5.06c3.95.38,7.89.56,11.81.56,13.4,0,26.27-2.22,37.99-6.45,11.74-4.23,22.33-10.43,31.19-18.48,14.62-13.28,24.08-30.88,27.9-51.67,1.41,13.25,3.07,25.84,5.07,36.77,4.67,25.59,21.7,44.19,40.52,44.19.75,0,1.5-.03,2.25-.09,15.35-1.25,26.18-14.84,28.97-36.39,1.16-8.93.06-22.86-1-36.39-1.1-14.41-1.88-25.8-.88-30.5l.34-1.69,1.16-1.25c4.7-5.07,18.19-8.77,41.31-11.27l7.01-.78-.13,10.87c-.34,27.43-.78,65.01,22.8,82.02,4.76,3.41,9.43,5.14,13.9,5.14.47,0,.94-.03,1.41-.06,7.48-.6,20.83-6.89,26.02-42.18,6.86-46.63,6.48-150.1-.72-194.16ZM178.02,619.76c-7.01,17.22-23.02,37.17-33.92,38.05-.25.03-.53.03-.88.03-1.88,0-3.73-.6-5.51-1.82l-1.28-.88-.72-1.41c-6.2-11.87-10.33-66.83-9.58-82.39.53-11.49,4.29-16.91,12.12-17.57.53-.03,1.13-.06,1.79-.06,4.98,0,11.43,1.57,19.17,4.6,10.87,4.29,17.98,10.65,21.73,19.42,4.7,10.93,3.66,25.87-2.91,42.03ZM271,287.03c.16-3.44.38-8.67,3.41-13.06,3.16-4.57,8.86-7.33,15.25-7.42h.06c.44,0,.85,0,1.03.03,16.85.31,31.5,12.75,34.07,28.94,2,12.62-3.76,24.87-15.06,31.94-5.32,3.35-11.49,5.2-17.88,5.35h-.41c-7.45,0-14.19-3.44-17.54-8.99-2.54-4.2-2.88-8.74-3.01-13.03-.22-7.64-.22-15.41.06-23.77ZM254.87,514.48c-4.98-9.46-11.31-18.07-18.63-25.52.03,0,.06.03.06.03,7.23-.03,14.22-2.22,20.29-6.42,11.62-7.7,19.38-21.01,21.89-37.55.88-4.95,1.03-9.77,1.19-14.44.31-10.27.78-16.85,5.01-21.67,2.69-3.01,7.27-4.98,11.68-4.98,1.72,0,3.35.31,4.85.94,4.98,2.1,8.24,7.83,11.62,15.85,2.72,6.64,5.39,13.53,7.95,20.17l.16.44c1.75,4.54,3.54,9.08,5.32,13.62l.53,1.32c1.57,3.85,3.19,7.95,5.14,11.96-33.95,5.29-60.38,21.14-77.07,46.25ZM383.89,642.44c-3.79,22.05-14.53,45.75-29.12,45.75-4.7,0-10.05-2.32-15.88-6.89-15.5-12.15-22.45-49.39-14.88-79.7,3.23-12.87,11.77-35.01,32.91-38.74,1.85-.34,3.66-.5,5.32-.5,6.01,0,10.52,2.04,14.25,6.45,11.46,13.59,11.87,47.69,7.39,73.62ZM394.01,325.61c-.16,4.26-.31,8.61-.53,12.68l-.28,8.86c-.41,13.06-1.06,26.4-1.66,39.33-.28,5.7-.56,11.46-.81,17.26-4.45-8.52-9.33-16.72-13.84-24.24-.94-1.66-2.97-5.01-2.97-5.01-3.23-5.2-3.73-7.42-3.79-8.93v-.69s.06-.47.06-.47c.34-3.1,2.51-6.45,6.92-12.4.88-1.13,1.72-2.29,2.54-3.44,6.55-9.36,11.24-18.23,14.5-26.53-.03,1.19-.09,2.38-.13,3.57ZM573.3,524.34c-16.66,21.64-17.94,54.9-19.17,87.06-.94,23.86-1.88,48.54-9.18,67.21-4.42,11.31-13.09,22.77-21.11,22.77l-.53-.03-.31-.03c-4.42-.44-8.17-4.7-10.58-8.24-13.97-20.54-7.3-58.78-1.41-92.51,2.98-17.1,5.79-33.23,5.79-46.16,0-7.95-1.5-14.75-4.04-20.32,14.47-.5,29.44-2.94,39.15-13.84,2.76-3.1,4.85-6.67,6.33-10.71,5.04,5.82,12.21,9.36,20.32,9.8-1.88,1.44-3.73,3.04-5.26,5.01ZM628.16,355.7c.31-1.16.63-2.47.94-3.82,2.16-9.14,4.82-20.51,12.03-25.93l.28-.22.78-.47c1.91-.97,3.91-1.5,5.92-1.5,12.87,0,20.54,20.32,24.74,37.58,2.63,12.68.41,21.86-6.64,27.25-3.7,2.88-8.71,4.45-14.09,4.45-6.36,0-12.5-2.16-16.75-5.86-5.48-4.51-11.18-13.62-7.2-31.47ZM697.65,518.89c-19.67,16.66-35.33,36.77-46.32,58.5.22-5.48.22-10.3,0-14.19-1.28-21.58-10.62-39.3-25.65-48.6-3.07-1.88-6.42-3.35-9.74-4.26-1.22-.34-2.44-.6-3.57-.75l-.53-.09c-1.6-.22-3.41-.5-5.32-.69-.66-.06-1.25-.09-1.85-.13,11.34-10.65,16.25-25.87,20.67-39.55,7.2-22.33,11.56-31.44,25.84-31.57l.38-.03c3.48,0,7.48.56,11.99,1.69,13.94,3.48,19.35,15.13,26.18,29.84l.13.28c2.94,6.33,6.01,12.87,10.05,18.98,4.73,6.8,10.52,12.34,17,16.25-2.94,1.91-5.95,3.98-8.93,6.17-3.51,2.57-6.98,5.29-10.33,8.14ZM789.16,608.9c-1.91-.22-3.82-.31-5.67-.31-11.31,0-21.11,3.48-28.34,10.08-6.04,5.48-13.22,15.94-13.15,34.67.09,17.94,9.55,25.08,18.82,29.69l9.96,4.95-9.39,5.95c-2.29,1.44-5.01,2.16-8.39,2.16-.85,0-1.75-.06-2.76-.16-12.28-1.22-27.43-10.93-33.1-21.17-17.16-30.97,2.07-73.06,30.78-92.92,7.95-5.54,18.26-8.74,28.25-11.84,22.36-6.98,47.73-14.88,40.93-51.3-.13-.78-.34-1.57-.53-2.38,6.23.97,13.5,1.82,21.36,2.38-.97,5.26-1.03,10.87-1.1,15.6,0,1.63-.03,3.13-.09,4.48-.72,19.32,1.25,38.64,3.19,57.34l.06.53c.44,4.45.91,8.86,1.32,13.31.94,9.93,1.85,21.23,2.76,32.16.13,1.63.25,3.29.41,4.95-10.8-21.7-33.7-36.01-55.3-38.17Z"/>
</svg>